<?xml version="1.0" encoding="UTF-8" standalone="no"?>
<!DOCTYPE svg PUBLIC "-//W3C//DTD SVG 1.1//EN" "http://www.w3.org/Graphics/SVG/1.1/DTD/svg11.dtd">
<svg version="1.1" xmlns="http://www.w3.org/2000/svg" xmlns:xlink="http://www.w3.org/1999/xlink" preserveAspectRatio="xMidYMid meet" viewBox="0 0 640 640" width="280" height="280"><defs><path d="M-23.25 -28.37L665.11 -28.37L665.11 517.66L-23.25 517.66L-23.25 -28.37Z" id="iBo7nu7k"/><path d="M-75.63 471.63L698.97 471.63L698.97 708.97L-75.63 708.97L-75.63 471.63Z" id="eaYadlOis"/><path d="M348.89 295.76L414.93 413.82L493.89 385.88L561.09 577.94L568.69 640L483.76 675.75L391.86 544.82L336.11 488.22L325.06 410.12L250.78 344.82L348.89 295.76Z" id="b2zt2UmHw"/><path d="M479.08 213.35L686.63 93.88L686.63 454.25L518.7 439.16L479.08 213.35Z" id="c4ShANVPMm"/><path d="M703.61 374.18L501.72 423.24L493.89 504.37L699.84 536.45L703.61 374.18Z" id="b15LRX8qos"/><path d="M367.76 242.93L528.14 273.12L552.67 410.12L485.75 586.19L469.65 708.97L346.41 658.03L346.41 586.19L386.63 418.41L336.11 324.07L367.76 242.93Z" id="l6QoGIwbeI"/><path d="M192.89 269.52L112.52 335.92L59.56 220.11L77.86 78.36L125.86 22.32L161.9 50.86L192.89 118.08L192.89 269.52Z" id="l3n0Iq8HS"/><path d="M201.17 389.36L353.87 328.65L377.77 267.31L533.94 133.65L426.94 119.72L344.33 58.82L244.73 50.86L199.58 86.37L165.58 107.17L138.27 183.3L201.17 389.36Z" id="b1295EAFFx"/><path d="M199.58 328.8L152.67 362.58L131.36 377.93L88.94 385.88L73.13 353.11L85.63 353.11L99.71 366.19L125.79 357.15L180.38 285.96L199.58 328.8Z" id="c2OR233ddI"/><path d="M203.39 192.83L230.21 180.24L292.08 240.4L325.06 324.14L288.89 336.55L245.85 393.65L242.54 496.27L219.37 572.4L136.36 640L90.4 611.94L99.63 590.85L136.36 596.12L183.79 539.66L187.1 512.66L156.48 362.88L173.86 240.4L203.39 192.83Z" id="c7lMruT8J3"/><path d="M284.83 360.85L269.11 388.16L230.21 388.16C230.21 394.39 230.21 398.28 230.21 399.84C230.21 400.27 230.51 400.65 230.93 400.76C237.67 402.5 254.54 406.85 281.52 413.82L312.14 379.06L322.07 334.37L312.14 317.82L279.04 331.07L284.83 360.85Z" id="aaMc2vYl3"/><path d="M318.91 201.13L349.21 193.85L357.09 196.28L349.21 178.7L329.21 164.76L301.3 178.7L318.91 201.13Z" id="aaKvLDVws"/><path d="M487.86 144.51L395.81 197.7L391.86 259.15L434.89 360.93L556.54 337.13L621.09 201.22L621.09 61.63L465.21 10.22L366.7 85.8L400.96 117.64L487.86 144.51Z" id="g4Pl925EGw"/><path d="M162.17 175.18L176.21 190.31L165.54 213.35L156.55 196.49L162.17 175.18Z" id="frFAgQ2L8"/><path d="M-5.82 572.3L35.68 675.75L82.85 747.77L162.1 696.83L192.89 615.69L145.12 668.52L166.38 536.45L107.38 687.39L82.85 510.03L82.85 683.62L31.91 491.16L59.56 664.75L-5.82 572.3Z" id="cKh0WwJsi"/><path d="M377.38 723.24L428.32 611.92L384.93 675.75L422.66 544L357.09 683.62L313.23 506.26L329.19 640L320 606.26L267.94 536.45L290.59 585.5L313.23 668.52L377.38 723.24Z" id="bfgjUyIH7"/><path d="M665.11 631.23L604.07 528.63L621.09 619.47L571.61 559.8L621.09 672.78L665.11 631.23Z" id="e1O7dqyoNd"/></defs><g><g><g><use xlink:href="#iBo7nu7k" opacity="1" fill="#49a7f1" fill-opacity="1"/></g><g><use xlink:href="#eaYadlOis" opacity="1" fill="#d7cb7e" fill-opacity="1"/></g><g><use xlink:href="#b2zt2UmHw" opacity="1" fill="#585858" fill-opacity="1"/></g><g><use xlink:href="#c4ShANVPMm" opacity="1" fill="#cac3a2" fill-opacity="1"/></g><g><use xlink:href="#b15LRX8qos" opacity="1" fill="#585858" fill-opacity="1"/></g><g><use xlink:href="#l6QoGIwbeI" opacity="1" fill="#a4a089" fill-opacity="1"/></g><g><use xlink:href="#l3n0Iq8HS" opacity="1" fill="#a4a089" fill-opacity="1"/></g><g><use xlink:href="#b1295EAFFx" opacity="1" fill="#cac3a2" fill-opacity="1"/></g><g><use xlink:href="#c2OR233ddI" opacity="1" fill="#e5e4de" fill-opacity="1"/></g><g><use xlink:href="#c7lMruT8J3" opacity="1" fill="#dfd7b4" fill-opacity="1"/></g><g><use xlink:href="#aaMc2vYl3" opacity="1" fill="#e8e8e8" fill-opacity="1"/></g><g><use xlink:href="#aaKvLDVws" opacity="1" fill="#585858" fill-opacity="1"/></g><g><use xlink:href="#g4Pl925EGw" opacity="1" fill="#dfd7b4" fill-opacity="1"/></g><g><use xlink:href="#frFAgQ2L8" opacity="1" fill="#585858" fill-opacity="1"/></g><g><use xlink:href="#cKh0WwJsi" opacity="1" fill="#faea83" fill-opacity="1"/></g><g><use xlink:href="#bfgjUyIH7" opacity="1" fill="#faea83" fill-opacity="1"/></g><g><use xlink:href="#e1O7dqyoNd" opacity="1" fill="#faea83" fill-opacity="1"/></g></g></g></svg>