<?xml version="1.0" encoding="UTF-8" standalone="no"?>
<!DOCTYPE svg PUBLIC "-//W3C//DTD SVG 1.1//EN" "http://www.w3.org/Graphics/SVG/1.1/DTD/svg11.dtd">
<svg version="1.1" xmlns="http://www.w3.org/2000/svg" xmlns:xlink="http://www.w3.org/1999/xlink" preserveAspectRatio="xMidYMid meet" viewBox="0 0 640 640" width="280" height="280"><defs><path d="M-13.33 -16.24L651.68 -16.24L651.68 651.26L-13.33 651.26L-13.33 -16.24Z" id="a1N5cdhFiS"/><path d="M582.67 540.4L662.95 643.21L582.67 623.49L520.7 669.97L486.89 564.34L582.67 540.4Z" id="adnXJNjlV"/><path d="M221.06 247.33L210.21 234.67L221.06 157.12L373.44 125.78L412.21 226.18L521.39 330.78L601.22 528.97L575.53 617.05L554.42 591.36L360.82 527.13L274.7 385.46L304.53 287.64L221.06 247.33Z" id="bk94ne0kO"/><path d="M229.73 157.43L181.31 183.69L32.94 226.29L174.21 209.25L216.28 241.97L229.73 157.43Z" id="d2KwSu0MvM"/><path d="M71.66 261.6L45.42 258L36.67 299.99L58.44 320L51.67 379.22L52.65 414.32L32.94 410.68L32.94 445.47L54.01 462.9L55.92 531.02L85.72 560.52L120.93 551.45L148.93 412.01L184.91 384.29L190.47 315.17L155.05 327L124.17 201.18L159.17 141.26L113.74 150.52L104.57 165.35L90.11 146.95L45.42 128.76L87.92 195.01L71.66 261.6Z" id="a1HZa6WDwa"/><path d="M349.17 291.26L285.72 353.71L289.52 306.42L221.06 246.26L349.17 291.26Z" id="a4z3dNJQon"/><path d="M279.9 194.17L325.98 171.26L363.14 158.78L429.86 184.09L420.61 125.78L380.08 123.19L267.45 138.02L214.17 128.76L174.17 171.26L36.67 207.51L185.42 196.26L279.9 194.17Z" id="adozTCgRX"/><path d="M269.11 140.16L418.74 125.78L380.22 79.42L257.26 83.86L213.55 128.76L269.11 140.16Z" id="f2QQEOGhA4"/><path d="M219.43 132.93L188.43 172.93L217.25 181.93L219.43 132.93Z" id="a5lY9Ucgd"/><path d="M429.86 184.01L426.28 220.62L441.24 255.01L366.24 205.01L379.24 165.35L429.86 184.01Z" id="f4O51cs4mh"/><path d="M254.58 166.6L271.37 161.6L283.87 154.82L253.15 158.75L244.58 175.89L254.58 166.6Z" id="a3p0QKJV5p"/><path d="M215.66 241.97L215.66 236.96L327.34 227.67L380.52 262.76L418.46 266.53L418.74 295.53L348.87 293.05L226.33 251L215.66 241.97Z" id="e1hX0SE6eP"/><path d="M454.5 261.6L537.6 299.99L601.22 496.73L598.16 540.4L553.09 475.61L486.89 429.13L475.63 292.51L454.5 261.6Z" id="a2CRU1HRCT"/><path d="M286.5 657.43L462.67 528.05L651.68 491.35L651.68 445.47L448.91 497.77L238.79 653.76L286.5 657.43Z" id="a1pWLtE5Nz"/><path d="M121.15 210.18L148.18 322.4L148.18 392.67L121.15 524.2L91.42 532.31L91.42 358.44L106.73 212.49L121.15 210.18Z" id="a21n8RBkau"/><path d="M104.79 544.86L114.66 532.2C113.65 541.35 113.02 547.07 112.77 549.36C112.74 549.67 112.47 549.91 112.16 549.91C110.23 549.92 105.4 549.95 97.67 549.99L104.79 544.86Z" id="l3uunFL8h"/><path d="M129.05 481.68L135.65 443.58L112.81 443.58L119.91 462.87L109.01 462.87L116.48 479.99L97.54 484.1L120.83 497.8L129.05 481.68Z" id="a1oM6aEMeu"/><path d="M145.29 399.33L145.29 376.99L117.21 383.59L131.33 394.25L112.81 403.9L138.7 417.09L145.29 399.33Z" id="bAAxczykr"/><path d="M143.79 333.52L122.61 340.73L143.79 347.08L143.79 333.52Z" id="b1tls63qdq"/><path d="M133.2 265.73L119.8 274.62L126.84 280.98L122.61 286.07L129.05 289.46L119.8 297.51L140.83 304.71L133.2 265.73Z" id="bFFz4jVx5"/><path d="M384.57 502.62L374.43 554.8L351.24 569.29L351.24 605.18L341.09 606.97L328.77 579.43L361.38 549.99L377.32 502.62L384.57 502.62Z" id="d5ebNeZ45"/><path d="M483.12 476.54L467.18 487.4L462.83 502.62L470.08 506.25L472.25 514.94L483.12 514.94L493.27 485.23L483.12 476.54Z" id="bhBpUvDOH"/></defs><g><g><g><use xlink:href="#a1N5cdhFiS" opacity="1" fill="#bacd9c" fill-opacity="1"/></g><g><use xlink:href="#adnXJNjlV" opacity="1" fill="#3a3a3a" fill-opacity="1"/></g><g><use xlink:href="#bk94ne0kO" opacity="1" fill="#f5aa41" fill-opacity="1"/></g><g><use xlink:href="#d2KwSu0MvM" opacity="1" fill="#3a3a3a" fill-opacity="1"/></g><g><use xlink:href="#a1HZa6WDwa" opacity="1" fill="#e3e3e3" fill-opacity="1"/></g><g><use xlink:href="#a4z3dNJQon" opacity="1" fill="#fbfbfb" fill-opacity="1"/></g><g><use xlink:href="#adozTCgRX" opacity="1" fill="#3a3a3a" fill-opacity="1"/></g><g><use xlink:href="#f2QQEOGhA4" opacity="1" fill="#2d8bd4" fill-opacity="1"/></g><g><use xlink:href="#a5lY9Ucgd" opacity="1" fill="#f5aa41" fill-opacity="1"/></g><g><use xlink:href="#f4O51cs4mh" opacity="1" fill="#fbfbfb" fill-opacity="1"/></g><g><use xlink:href="#a3p0QKJV5p" opacity="1" fill="#fbfbfb" fill-opacity="1"/></g><g><use xlink:href="#e1hX0SE6eP" opacity="1" fill="#2d8bd4" fill-opacity="1"/></g><g><use xlink:href="#a2CRU1HRCT" opacity="1" fill="#2d8bd4" fill-opacity="1"/></g><g><use xlink:href="#a1pWLtE5Nz" opacity="1" fill="#a68846" fill-opacity="1"/></g><g><use xlink:href="#a21n8RBkau" opacity="1" fill="#939e81" fill-opacity="1"/></g><g><use xlink:href="#l3uunFL8h" opacity="1" fill="#3a3a3a" fill-opacity="1"/></g><g><use xlink:href="#a1oM6aEMeu" opacity="1" fill="#3a3a3a" fill-opacity="1"/></g><g><use xlink:href="#bAAxczykr" opacity="1" fill="#3a3a3a" fill-opacity="1"/></g><g><use xlink:href="#b1tls63qdq" opacity="1" fill="#3a3a3a" fill-opacity="1"/></g><g><use xlink:href="#bFFz4jVx5" opacity="1" fill="#3a3a3a" fill-opacity="1"/></g><g><use xlink:href="#d5ebNeZ45" opacity="1" fill="#f57e02" fill-opacity="1"/></g><g><use xlink:href="#bhBpUvDOH" opacity="1" fill="#f57e02" fill-opacity="1"/></g></g></g></svg>