<?xml version="1.0" encoding="UTF-8" standalone="no"?>
<!DOCTYPE svg PUBLIC "-//W3C//DTD SVG 1.1//EN" "http://www.w3.org/Graphics/SVG/1.1/DTD/svg11.dtd">
<svg version="1.1" xmlns="http://www.w3.org/2000/svg" xmlns:xlink="http://www.w3.org/1999/xlink" preserveAspectRatio="xMidYMid meet" viewBox="0 0 1920 640" width="1920" height="640"><defs><path d="M953.54 330.63L1009.81 350.3L1039.58 312.65L945.27 246.93L817.03 355.06L968.27 547.04L1218.83 325.7L976.77 -66.95L452.11 279.91L538.11 824.62L418.92 861.89L345.25 238.26L982.75 -109.84L1261.72 325.7L957.2 584.79L780.48 355.06L943.6 229.51L1053.78 310.98L1015.05 360.4L943.6 336.03L940.88 321.35L901.19 329.51L889.77 371.7L976.77 429.8L1113.32 318.06L939.01 160.14L709.58 338.92L906.24 671.15L1402.35 512.72L1541.75 -96.72L1651.53 -86.12L1479.82 574.31L866.94 738.19L664.12 322.98L946.32 124.52L1138.8 321.35L976.77 450.22L866.94 376.27L889.77 321.35L946.32 312.65L953.54 330.63Z" id="aUeNyWZdL"></path><path d="M998.39 330.66C998.39 354.39 979.12 373.66 955.39 373.66C931.67 373.66 912.4 354.39 912.4 330.66C912.4 306.94 931.67 287.67 955.39 287.67C979.12 287.67 998.39 306.94 998.39 330.66Z" id="e648oAIVzF"></path><path d="M957.9 393.01L1067.13 539.44L848.68 539.44L957.9 393.01Z" id="cCYX1Izbr"></path><path d="M955.39 268.37L843.66 118.58L1067.13 118.58L955.39 268.37Z" id="emO3etoTu"></path><path d="M989.1 185.65L990.37 168.23L920.7 169.22L922.66 187.66L989.1 185.65Z" id="a3hiNSMLeh"></path><path d="M975.8 324.48L974.89 314.21L934.99 314.31L935.31 325.88L975.8 324.48Z" id="a1VJIoB6TO"></path><path d="M974.39 346.02L974.85 334.82L935.94 335.69L935.94 347.12L974.39 346.02Z" id="a5RezVE0i6"></path><path d="M926.62 470.45L923.93 488.51L948.76 488.51L948.02 514.21L968.15 514.21L968.15 488.51L993.89 488.51L993.39 470.45L967.55 470.45L966.86 445.16L949.76 444.41L948.76 470.45L926.62 470.45Z" id="bi5PHBn5W"></path></defs><g><g><g><use xlink:href="#aUeNyWZdL" opacity="1" fill="#ddb0ff" fill-opacity="1"></use></g><g><use xlink:href="#e648oAIVzF" opacity="1" fill="#a735ff" fill-opacity="1"></use></g><g><use xlink:href="#cCYX1Izbr" opacity="1" fill="#2aa847" fill-opacity="1"></use></g><g><use xlink:href="#emO3etoTu" opacity="1" fill="#28a745" fill-opacity="0.99"></use></g><g><use xlink:href="#a3hiNSMLeh" opacity="1" fill="#ffffff" fill-opacity="1"></use></g><g><use xlink:href="#a1VJIoB6TO" opacity="1" fill="#ffffff" fill-opacity="1"></use></g><g><use xlink:href="#a5RezVE0i6" opacity="1" fill="#ffffff" fill-opacity="1"></use></g><g><use xlink:href="#bi5PHBn5W" opacity="1" fill="#ffffff" fill-opacity="1"></use></g></g></g></svg>