<?xml version="1.0" encoding="UTF-8" standalone="no"?>
<!DOCTYPE svg PUBLIC "-//W3C//DTD SVG 1.1//EN" "http://www.w3.org/Graphics/SVG/1.1/DTD/svg11.dtd">
<svg version="1.1" xmlns="http://www.w3.org/2000/svg" xmlns:xlink="http://www.w3.org/1999/xlink" preserveAspectRatio="xMidYMid meet" viewBox="0 0 840 1250" width="840" height="1250"><defs><path d="M-3.76 -7.83L851.54 -7.83L851.54 929.34L-3.76 929.34L-3.76 -7.83Z" id="a3fyhhinsw"></path><path d="M514.47 667.13L596.3 752.45L643.28 677.24L747.72 708.05L795.68 781.81" id="bk7vbKbCL"></path><path d="M333.21 534.17L506.35 612.58L600.59 433.65L399.06 414.9L333.21 534.17L160.68 586.41L222.84 818.97" id="cgunXSjCR"></path><path d="M844.13 898.84L857.56 785.41C857.56 785.41 857.56 785.41 857.56 785.41C797.64 777.07 736.68 780.05 677.86 794.18C659.13 798.67 682.91 792.96 661.92 798C661.92 798 505.62 831.06 505.62 831.06C484.21 834.98 521.34 828.18 505.62 831.06C434.61 844.06 362.15 847.28 290.27 840.63C285.76 840.21 274.47 839.17 256.42 837.5L311.29 898.84L844.13 898.84Z" id="bLdKkObCt"></path><path d="M185.5 839.82L229.95 822.25L243.57 784.64L242.27 747.86L203.45 731.46L184.84 713.42L138.77 730.71L148.64 808.79L185.5 839.82Z" id="b2FkxhBzW4"></path><path d="M42.12 839.82L62.94 814.01L42.12 758.2L12 735.79L3.41 765.62L-25.15 795.51L0.18 824.76L42.12 839.82Z" id="emEa2s1cV"></path><path d="M806.04 854.37L797.56 895.16L791.2 897.64L792.59 857.71L735.6 833.24L763.76 785.74L768.46 734.36C778 729.19 787.7 726.61 797.56 726.61C807.42 726.61 817.43 729.19 827.6 734.36L832.29 782.83L855.76 820.64L827.6 846.81L806.04 854.37Z" id="a4Uglqngx"></path><path d="M250.96 819.58C381.71 870.62 521.51 894.37 661.77 889.38C680.07 888.73 640.15 890.15 687.9 888.45C731.29 886.91 774.31 879.85 815.92 867.43C828.66 863.63 860.52 854.13 911.5 838.92L868.49 997.51L-1.23 1003.75L-17.44 838.92C24.3 820.44 50.39 808.89 60.82 804.27C106.09 784.24 157.48 783.09 203.6 801.09C252.71 820.26 227.08 810.26 250.96 819.58Z" id="d8wSPecKj"></path><path d="M52.53 793.06L58.26 820.66L62.57 822.34L61.62 795.32L100.17 778.77L81.12 746.64L77.95 711.89C71.49 708.39 64.93 706.64 58.26 706.64C51.6 706.64 44.82 708.39 37.95 711.89L34.77 744.67L18.9 770.25L37.95 787.95L52.53 793.06Z" id="a1fmn3WTwl"></path><path d="M135.16 850.93L139.17 804.25L174.63 785.61L195.49 741.8L160.03 685.47L100.57 689.65L85.97 730.33L92.23 785.61L122.23 798.12L135.16 850.93Z" id="a691Ws3FR"></path><path d="M242.73 -40.5L313.95 193.51L226.74 353.39L77.03 401.36" id="dyhagpBA"></path><path d="M916.39 329.62L766.96 198.22L546.99 164.99L527.3 -20.47" id="c3kVJ6HD3Q"></path><path d="M-15.99 472.58L91.57 552.52L-24.71 651.36" id="jiBlAdHYI"></path><path d="M114.83 160.08L-17.44 128.1" id="b3BBApmnQ0"></path><path d="M364.16 98.29C364.16 101.75 361.18 104.56 357.51 104.56C353.84 104.56 350.86 101.75 350.86 98.29C350.86 94.83 353.84 92.02 357.51 92.02C361.18 92.02 364.16 94.83 364.16 98.29Z" id="aq6enmQiU"></path><path d="M478.65 660.86C478.65 664.32 475.68 667.13 472.01 667.13C468.34 667.13 465.36 664.32 465.36 660.86C465.36 657.4 468.34 654.6 472.01 654.6C475.68 654.6 478.65 657.4 478.65 660.86Z" id="iht7n1iG8"></path><path d="M465.36 73.77C465.36 78.96 460.89 83.17 455.4 83.17C449.9 83.17 445.43 78.96 445.43 73.77C445.43 68.59 449.9 64.38 455.4 64.38C460.89 64.38 465.36 68.59 465.36 73.77Z" id="h2UQnMozfQ"></path><path d="M700.11 660.86C700.11 664.32 697.13 667.13 693.46 667.13C689.79 667.13 686.81 664.32 686.81 660.86C686.81 657.4 689.79 654.6 693.46 654.6C697.13 654.6 700.11 657.4 700.11 660.86Z" id="aKUPy407F"></path><path d="M564.5 547.26C564.5 550.08 562.43 552.38 559.88 552.38C557.34 552.38 555.27 550.08 555.27 547.26C555.27 544.44 557.34 542.15 559.88 542.15C562.43 542.15 564.5 544.44 564.5 547.26Z" id="b10mS4eWe"></path><path d="M655.07 374.79C655.07 379.98 650.61 384.19 645.11 384.19C639.61 384.19 635.15 379.98 635.15 374.79C635.15 369.61 639.61 365.4 645.11 365.4C650.61 365.4 655.07 369.61 655.07 374.79Z" id="a3CXqZH13w"></path><path d="M453.99 356.01C453.99 361.19 449.53 365.4 444.03 365.4C438.53 365.4 434.07 361.19 434.07 356.01C434.07 350.82 438.53 346.61 444.03 346.61C449.53 346.61 453.99 350.82 453.99 356.01Z" id="a1q9CzCV7G"></path><path d="M408.17 477.63C408.17 482.81 403.71 487.02 398.21 487.02C392.71 487.02 388.25 482.81 388.25 477.63C388.25 472.44 392.71 468.23 398.21 468.23C403.71 468.23 408.17 472.44 408.17 477.63Z" id="at5xuBjX0"></path><path d="M319.03 646.57C319.03 650.03 316.05 652.84 312.39 652.84C308.72 652.84 305.74 650.03 305.74 646.57C305.74 643.11 308.72 640.3 312.39 640.3C316.05 640.3 319.03 643.11 319.03 646.57Z" id="b7XDkYqWx6"></path><path d="M97.31 553.33C97.31 556.79 94.33 559.6 90.66 559.6C86.99 559.6 84.01 556.79 84.01 553.33C84.01 549.87 86.99 547.06 90.66 547.06C94.33 547.06 97.31 549.87 97.31 553.33Z" id="b1Paf8XR2o"></path><path d="M47.12 680.44C47.12 687.78 40.8 693.74 33.01 693.74C25.22 693.74 18.9 687.78 18.9 680.44C18.9 673.09 25.22 667.13 33.01 667.13C40.8 667.13 47.12 673.09 47.12 680.44Z" id="a2Sjxau1a"></path><path d="M659.22 91.25C659.22 98.59 652.9 104.56 645.11 104.56C637.32 104.56 631 98.59 631 91.25C631 83.91 637.32 77.94 645.11 77.94C652.9 77.94 659.22 83.91 659.22 91.25Z" id="a4IgoNlQBI"></path><path d="M211.09 64.38C211.09 69.57 206.63 73.77 201.13 73.77C195.63 73.77 191.17 69.57 191.17 64.38C191.17 59.2 195.63 54.99 201.13 54.99C206.63 54.99 211.09 59.2 211.09 64.38Z" id="a4LoOM9TUA"></path><path d="M182.77 160.08C182.77 168.1 175.86 174.61 167.35 174.61C158.84 174.61 151.93 168.1 151.93 160.08C151.93 152.06 158.84 145.54 167.35 145.54C175.86 145.54 182.77 152.06 182.77 160.08Z" id="aRMuRO2ad"></path><path d="M739.85 785.74L742.82 788.7L745.33 783.75L751.4 780.45L758.33 785.74L760.98 776.49L751.4 764.28L729.29 769.23L722.69 780.45L725.33 784.74L732.59 778.79L736.22 790.35L739.85 785.74Z" id="awdDzNPyC"></path><path d="M816.09 275.91C816.09 282.32 810.57 287.53 803.76 287.53C796.95 287.53 791.43 282.32 791.43 275.91C791.43 269.49 796.95 264.28 803.76 264.28C810.57 264.28 816.09 269.49 816.09 275.91Z" id="d4bzffIsOU"></path><path d="M680.19 802.06L685.51 795.51L699.58 793.64L709.59 799.04L707.92 790.11L717.61 796.57L709.59 771.05L695.9 758.13L692.56 764.27L695.24 773.63L674.54 784.33L673.87 800.44L680.19 802.06Z" id="a8Oug4Scc"></path><path d="M542.6 848.63L531.24 877.91L585.1 904.66L588.92 879.01L594.41 859.2L570.07 844.16L542.6 848.63Z" id="b6m7XWw3q9"></path><path d="M654.31 911.51L666.68 879.5L697.84 874.12L722.69 847.81L706.42 800.39L659.56 790.35L640.18 815.82L634.04 856.13L654.78 871.49L654.31 911.51Z" id="ar8B7d2Yt"></path><path d="M-11.64 857.53C-1.92 860.55 4.15 862.44 6.57 863.2C33.53 871.59 61.3 877.1 89.41 879.65C111.23 881.62 144.94 884.68 169.4 886.89C188.79 888.65 208.29 888.89 227.72 887.61C252.18 885.99 289.78 883.51 312.6 882C337.44 880.36 361.97 875.51 385.56 867.57C388.45 866.6 395.67 864.17 407.21 860.29L418.55 853.23C407.08 860.38 399.92 864.85 397.05 866.64C372.97 881.67 345.54 890.47 317.21 892.27C278.24 894.75 279.77 894.65 259.62 895.93C168.6 901.72 77.22 894.22 -11.64 873.67C-11.64 873.67 -11.64 873.67 -11.64 873.67L-11.64 857.53Z" id="a6MjWIQif"></path><path d="M450.92 870.51L477.27 883.72L516.13 888.27L512.8 841.13L528.16 819.4L501.63 818.29L469.99 798.94L452.55 828.74L450.92 870.51Z" id="bqNPLQY0C"></path><path d="M138.61 186.7C138.61 190.15 135.63 192.96 131.96 192.96C128.3 192.96 125.32 190.15 125.32 186.7C125.32 183.24 128.3 180.43 131.96 180.43C135.63 180.43 138.61 183.24 138.61 186.7Z" id="cm3dfTdie"></path><path d="M445.33 900.32L411.91 919.19L461.14 919.19L482.48 866.91C470.7 855.79 463.34 848.83 460.39 846.05C455.31 841.25 451.94 834.93 450.78 828.04C450.31 825.21 449.73 821.75 449.02 817.52C448.67 815.48 449.96 813.53 451.96 813.03C454.08 812.5 456.16 811.99 458.1 811.5C460.77 810.84 462.75 808.59 463.07 805.86C463.11 805.5 463.22 804.6 463.38 803.16L445.33 797.72L465.86 794.61L464.78 786.61C466.61 785.38 467.76 784.61 468.22 784.31C469.78 783.26 470.17 781.14 469.08 779.61C468.22 778.4 466.05 775.36 462.59 770.5C462.59 768.04 462.59 766.51 462.59 765.9C462.59 758.98 461.45 752.12 459.21 745.58C459.21 745.58 459.21 745.58 459.21 745.58C460.5 740.33 461.31 737.04 461.63 735.73C462.11 733.78 460.55 731.93 458.55 732.06C457.75 732.11 455.76 732.24 452.57 732.45C447.54 731.61 444.41 731.08 443.15 730.87C435.64 729.61 427.95 729.89 420.55 731.69C417.9 732.34 419.95 731.84 417 732.56C410.73 734.08 405.19 737.73 401.31 742.88C400.41 744.09 402.06 741.9 400.75 743.64C398.22 747 397.16 751.24 397.8 755.39C398.05 756.99 398.67 760.99 399.66 767.38C405.96 784.69 409.9 795.5 411.47 799.83C412.77 803.4 412.59 807.35 410.95 810.78C410.34 812.08 411.46 809.71 410.95 810.78C409.17 814.54 404.96 816.49 400.95 815.43C400.32 815.27 401.97 815.7 400.49 815.31C398.72 814.85 396.92 814.51 395.1 814.32C392.28 814.02 390.27 813.8 388.38 813.6C383.79 813.11 379.74 810.36 377.59 806.27C376.23 803.67 374.05 799.52 372.3 796.2C371.39 794.47 371.69 792.36 373.03 790.94C374.26 789.66 373.04 790.93 373.61 790.34C377.17 786.59 379.18 781.64 379.24 776.47C379.25 775.37 379.25 775.24 379.28 772.92C379.29 771.73 378.59 770.65 377.5 770.18C376.89 769.91 377.46 770.16 377 769.96C375.56 769.33 373.88 769.92 373.14 771.31C372.41 772.71 370.6 776.12 369.64 777.94C369.55 778.12 369.32 778.16 369.16 778.03C368.56 777.53 367.7 776.81 367.26 776.44C366.52 775.82 365.95 775.03 365.6 774.14C365.42 773.67 364.96 772.52 364.24 770.68C362.72 764.28 361.77 760.28 361.39 758.68C361.07 757.32 360.22 756.14 359.04 755.38C358.53 755.05 359.85 755.9 359.6 755.73C358.16 754.82 356.27 755.73 356.09 757.42C355.94 758.88 355.82 760.02 355.66 761.6C355.44 763.67 355.44 765.76 355.66 767.84C355.83 769.37 356.11 772.02 356.3 773.85C356.33 774.14 355.93 774.25 355.81 773.98C354.55 771.07 352.16 765.57 351.08 763.08C350.45 761.64 348.42 761.6 347.73 763.01C347.45 763.59 347.7 763.08 347.26 763.99C346.65 765.25 346.38 766.64 346.47 768.03C346.55 769.25 346.67 771.19 346.76 772.51C346.81 773.36 346.08 774.05 345.24 773.95C344.31 773.84 345.52 773.98 345.19 773.94C342.79 773.66 340.72 775.61 340.86 778.01C340.87 778.25 340.85 777.82 340.91 778.93C340.92 779.08 340.81 779.22 340.65 779.24C340.09 779.33 339.74 779.38 339.44 779.43C338.51 779.57 337.8 780.34 337.74 781.28C337.7 782.05 337.78 780.76 337.76 781.03C337.59 783.71 338.28 786.38 339.74 788.65C340.4 789.68 342.07 792.26 344.72 796.39C348.42 807.23 350.73 814.01 351.66 816.72C354.08 823.82 358.05 830.28 363.3 835.64C365.07 837.45 369.5 841.98 376.59 849.23L383.63 879.86L445.33 900.32Z" id="a36ePW6ZVU"></path><path d="M492.48 903.21L516.94 920.5L524.95 909.98L573.46 912.9L532.98 940.11L647.25 924.28L600.59 884.54L647.25 861.59L636.6 837.26L600.64 817.8L588.69 794.31L608.15 782.46L628.73 813.7L659.06 809.49L659.06 783.57L620.12 766.66L622.27 711.54L577.57 691.28L546.42 695.78L529.49 715.76L528.37 747.9L519.68 760.85L527.68 767.71L526.96 788.37L545.38 792.7L551.42 819.61L511.1 841.14L500.29 866.55L492.48 903.21Z" id="a1gi6okD5o"></path><path d="M245.65 791.37L228.95 806.54L214.01 833.66L245.65 846.23L255.02 864.44L263.91 845.28L286.23 828.18L272.26 805.87L245.65 791.37Z" id="d1pTO2fO0"></path><path d="M791.43 837.6L748.27 808.57L706.15 819.56L673.96 843.4L683.2 888.32L678.5 916.14L722.41 946.78L722.69 963.6L701.78 954.63L697.13 960.03L725.32 974.7L727.53 1022.15L732.91 1019.14L735.5 943.47L768.86 935.03L786.33 889.79L791.43 837.6Z" id="a3L3iv6mf"></path><path d="M69.17 867.23L69.17 882.05L82.4 867.23L100.17 870.94L110.44 887.87L110.44 869.35L122.08 887.87L119.44 845.54L124.2 833.9L112.56 815.91L107.8 822.34L102.51 814.32L102.51 842.89L62.94 848.71L57.53 877.68L69.17 867.23Z" id="aJfQjRN3g"></path><path d="M157.35 871.32L165.51 866.72L178.77 863.15L187.45 864.44L184.39 845.81L171.63 843.25L176.22 850.93L160.68 857.53L151.22 841.21L153.26 863.15L157.35 871.32Z" id="a1jZiXbYbh"></path><path d="M205.79 826.78L201.32 813.63L203.95 806L198.16 806L196.05 818.36L187.45 812.84L191.86 827.9L205.79 826.78Z" id="b2QpC3MlWW"></path><path d="M401.8 1062.9L346.19 1086.26L396.64 1110.55L427.47 1082.52L391.03 1014.32L401.8 1062.9Z" id="e9jjjiAcLj"></path><path d="M495.78 1010.92L501.04 1063.11L543.81 1044.7L567.45 1068.3L612.42 1071.81L575.85 1015.17L495.78 1010.92Z" id="a5VF5j6p3M"></path><path d="M667.12 949.64L635.37 977.88L597.09 965.51L611.26 944.52L667.12 949.64Z" id="g37fd9C6aB"></path><path d="M579.35 1118.1L555.27 1122.22L589.66 1138.71L579.35 1118.1Z" id="b2t1dvwdxW"></path><path d="M367.79 904.66L337.73 922.38L342.48 949.59L355.19 938.83L395.93 906.24L367.79 904.66Z" id="dkMCCeAx"></path><path d="M487.67 1138.71L410.02 1127.1L406.39 1077.19L487.67 1138.71Z" id="b4oDHxF39q"></path><path d="M485.16 961.2L511.06 949.59L502.13 933.91L447.03 940.11L444.09 975.87L489.54 986.58L485.16 961.2Z" id="b7DfgE4ij"></path><path d="M256.42 1193.81L217.29 1183.81L224.43 1208.09L256.42 1193.81Z" id="f2U87E7DS"></path></defs><g><g><g><use xlink:href="#a3fyhhinsw" opacity="1" fill="#445cd1" fill-opacity="1"></use></g><g><g><use xlink:href="#bk7vbKbCL" opacity="1" fill-opacity="0" stroke="#ffffff" stroke-width="4" stroke-opacity="0.18"></use></g></g><g><g><use xlink:href="#cgunXSjCR" opacity="1" fill-opacity="0" stroke="#ffffff" stroke-width="5" stroke-opacity="0.19"></use></g></g><g><use xlink:href="#bLdKkObCt" opacity="1" fill="#8193e9" fill-opacity="1"></use><g><use xlink:href="#bLdKkObCt" opacity="1" fill-opacity="0" stroke="#000000" stroke-width="0" stroke-opacity="1"></use></g></g><g><use xlink:href="#b2FkxhBzW4" opacity="1" fill="#a553f7" fill-opacity="1"></use></g><g><use xlink:href="#emEa2s1cV" opacity="1" fill="#e149e2" fill-opacity="1"></use></g><g><use xlink:href="#a4Uglqngx" opacity="1" fill="#b890ff" fill-opacity="1"></use><g><use xlink:href="#a4Uglqngx" opacity="1" fill-opacity="0" stroke="#000000" stroke-width="0" stroke-opacity="1"></use></g></g><g><use xlink:href="#d8wSPecKj" opacity="1" fill="#ffffff" fill-opacity="1"></use><g><use xlink:href="#d8wSPecKj" opacity="1" fill-opacity="0" stroke="#000000" stroke-width="0" stroke-opacity="1"></use></g></g><g><use xlink:href="#a1fmn3WTwl" opacity="1" fill="#b890ff" fill-opacity="1"></use><g><use xlink:href="#a1fmn3WTwl" opacity="1" fill-opacity="0" stroke="#000000" stroke-width="0" stroke-opacity="1"></use></g></g><g><use xlink:href="#a691Ws3FR" opacity="1" fill="#ff84c3" fill-opacity="1"></use><g><use xlink:href="#a691Ws3FR" opacity="1" fill-opacity="0" stroke="#000000" stroke-width="0" stroke-opacity="1"></use></g></g><g><g><use xlink:href="#dyhagpBA" opacity="1" fill-opacity="0" stroke="#ffffff" stroke-width="8" stroke-opacity="0.18"></use></g></g><g><g><use xlink:href="#c3kVJ6HD3Q" opacity="1" fill-opacity="0" stroke="#ffffff" stroke-width="7" stroke-opacity="0.18"></use></g></g><g><g><use xlink:href="#jiBlAdHYI" opacity="1" fill-opacity="0" stroke="#ffffff" stroke-width="3" stroke-opacity="0.18"></use></g></g><g><g><use xlink:href="#b3BBApmnQ0" opacity="1" fill-opacity="0" stroke="#ffffff" stroke-width="11" stroke-opacity="0.18"></use></g></g><g><use xlink:href="#aq6enmQiU" opacity="1" fill="#ffffff" fill-opacity="0.37"></use></g><g><use xlink:href="#iht7n1iG8" opacity="1" fill="#ffffff" fill-opacity="0.37"></use></g><g><use xlink:href="#h2UQnMozfQ" opacity="1" fill="#ffffff" fill-opacity="0.37"></use></g><g><use xlink:href="#aKUPy407F" opacity="1" fill="#ffffff" fill-opacity="0.37"></use></g><g><use xlink:href="#b10mS4eWe" opacity="1" fill="#ffffff" fill-opacity="0.37"></use></g><g><use xlink:href="#a3CXqZH13w" opacity="1" fill="#ffffff" fill-opacity="0.37"></use></g><g><use xlink:href="#a1q9CzCV7G" opacity="1" fill="#ffffff" fill-opacity="0.37"></use></g><g><use xlink:href="#at5xuBjX0" opacity="1" fill="#ffffff" fill-opacity="0.37"></use></g><g><use xlink:href="#b7XDkYqWx6" opacity="1" fill="#ffffff" fill-opacity="0.37"></use></g><g><use xlink:href="#b1Paf8XR2o" opacity="1" fill="#ffffff" fill-opacity="0.37"></use></g><g><use xlink:href="#a2Sjxau1a" opacity="1" fill="#ffffff" fill-opacity="0.37"></use></g><g><use xlink:href="#a4IgoNlQBI" opacity="1" fill="#ffffff" fill-opacity="0.37"></use></g><g><use xlink:href="#a4LoOM9TUA" opacity="1" fill="#ffffff" fill-opacity="0.37"></use></g><g><use xlink:href="#aRMuRO2ad" opacity="1" fill="#ffffff" fill-opacity="0.37"></use></g><g><use xlink:href="#awdDzNPyC" opacity="1" fill="#a05c3f" fill-opacity="1"></use></g><g><use xlink:href="#d4bzffIsOU" opacity="1" fill="#ffffff" fill-opacity="0.37"></use></g><g><use xlink:href="#a8Oug4Scc" opacity="1" fill="#713d26" fill-opacity="1"></use></g><g><use xlink:href="#b6m7XWw3q9" opacity="1" fill="#e149e2" fill-opacity="1"></use></g><g><use xlink:href="#ar8B7d2Yt" opacity="1" fill="#ff84c3" fill-opacity="1"></use><g><use xlink:href="#ar8B7d2Yt" opacity="1" fill-opacity="0" stroke="#000000" stroke-width="0" stroke-opacity="1"></use></g></g><g><use xlink:href="#a6MjWIQif" opacity="1" fill="#445cd1" fill-opacity="1"></use></g><g><use xlink:href="#bqNPLQY0C" opacity="1" fill="#e149e2" fill-opacity="1"></use></g><g><use xlink:href="#cm3dfTdie" opacity="1" fill="#ffffff" fill-opacity="0.37"></use></g><g><use xlink:href="#a36ePW6ZVU" opacity="1" fill="#ff9500" fill-opacity="1"></use><g><use xlink:href="#a36ePW6ZVU" opacity="1" fill-opacity="0" stroke="#ffffff" stroke-width="0" stroke-opacity="0.71"></use></g></g><g><use xlink:href="#a1gi6okD5o" opacity="1" fill="#ef0e42" fill-opacity="1"></use></g><g><use xlink:href="#d1pTO2fO0" opacity="1" fill="#e149e2" fill-opacity="1"></use></g><g><use xlink:href="#a3L3iv6mf" opacity="1" fill="#a553f7" fill-opacity="1"></use></g><g><use xlink:href="#aJfQjRN3g" opacity="1" fill="#be4e1e" fill-opacity="1"></use><g><use xlink:href="#aJfQjRN3g" opacity="1" fill-opacity="0" stroke="#ffffff" stroke-width="0" stroke-opacity="0.71"></use></g></g><g><use xlink:href="#a1jZiXbYbh" opacity="1" fill="#713d26" fill-opacity="1"></use></g><g><use xlink:href="#b2QpC3MlWW" opacity="1" fill="#713d26" fill-opacity="1"></use></g><g><use xlink:href="#e9jjjiAcLj" opacity="1" fill="#ef0e41" fill-opacity="0.67"></use></g><g><use xlink:href="#a5VF5j6p3M" opacity="1" fill="#ef0e41" fill-opacity="0.65"></use></g><g><use xlink:href="#g37fd9C6aB" opacity="1" fill="#ef0e41" fill-opacity="0.67"></use></g><g><use xlink:href="#b2t1dvwdxW" opacity="1" fill="#ef0e42" fill-opacity="1"></use></g><g><use xlink:href="#dkMCCeAx" opacity="1" fill="#ff9500" fill-opacity="1"></use></g><g><use xlink:href="#b4oDHxF39q" opacity="1" fill="#ff9500" fill-opacity="1"></use></g><g><use xlink:href="#b7DfgE4ij" opacity="1" fill="#ff9500" fill-opacity="0.67"></use></g><g><use xlink:href="#f2U87E7DS" opacity="1" fill="#ff9500" fill-opacity="0.56"></use></g></g></g></svg>